<svg xmlns="http://www.w3.org/2000/svg" viewBox="0 0 56 56" style=""><defs><style>.cls-1{fill:#000000;}.cls-2{fill:none;}.cls-3{opacity:0.5;}.cls-4{fill:#000000;}</style></defs><g id="Product_Designer" data-name="Product Designer"><path class="cls-1" d="M34.2332,24.529a6.6815,6.6815,0,0,0-1.6637-2.1508l-1.1382,1.33A4.9314,4.9314,0,0,1,32.661,25.3Z"/><path class="cls-1" d="M23.8161,22.82l1.26,1.2151a4.7419,4.7419,0,0,1,1.6031-1.1l-.6717-1.6167A6.498,6.498,0,0,0,23.8161,22.82Z"/><path class="cls-1" d="M28.0638,20.8478l.1008,1.7466a4.5759,4.5759,0,0,1,1.9568.3179l.6494-1.6253A6.3228,6.3228,0,0,0,28.0638,20.8478Z"/><path class="cls-1" d="M31.0725,31.7093l1.0065,1.4321A6.6379,6.6379,0,0,0,33.9376,31.15L32.4422,30.24A4.8749,4.8749,0,0,1,31.0725,31.7093Z"/><path class="cls-1" d="M34.8536,26.5191l-1.73.2614a5.2625,5.2625,0,0,1-.09,2.0269l1.7.4153a7.0284,7.0284,0,0,0,.1982-1.6543A6.9506,6.9506,0,0,0,34.8536,26.5191Z"/><path class="cls-2" d="M28.4261,50.3338,10.0169,39.6755C17.0331,43.7605,26.4305,49.2157,28.4261,50.3338Z"/><polygon class="cls-2" points="47.677 24.464 47.678 17.542 47.676 38.099 47.677 24.464"/><path class="cls-4" d="M28.4278,32.55a4.8782,4.8782,0,0,1-4.7561-4.9817,5.1142,5.1142,0,0,1,.8759-2.8814L23.1,23.7043a6.8539,6.8539,0,0,0-1.1783,3.8641A6.6294,6.6294,0,0,0,28.4278,34.3a6.2759,6.2759,0,0,0,2.7233-.617l-.7537-1.5791A4.5419,4.5419,0,0,1,28.4278,32.55Z"/><path class="cls-4" d="M41.8809,24.4589l-2.1328-.6358a12.5822,12.5822,0,0,0-.7554-1.9029l1.05-1.9709.034-.0637a2.0619,2.0619,0,0,0-.329-2.4079l-1.5723-1.6372a2.0111,2.0111,0,0,0-2.4045-.3453L33.8564,16.601a11.5528,11.5528,0,0,0-1.7859-.764l-.6161-2.2336a2.0083,2.0083,0,0,0-1.9209-1.4885H27.3212A2.0086,2.0086,0,0,0,25.4,13.6025l-.6161,2.2345a11.5552,11.5552,0,0,0-1.7858.7648l-1.9167-1.1074a2.0119,2.0119,0,0,0-2.4037.3478l-1.5714,1.6355a2.0635,2.0635,0,0,0-.33,2.4079L17.862,21.92a12.65,12.65,0,0,0-.7554,1.9021l-2.1328.6366a2.0457,2.0457,0,0,0-1.4372,1.9593v2.3a2.0466,2.0466,0,0,0,1.4381,1.96l2.1319.6349a12.595,12.595,0,0,0,.686,1.7474c.0245.0515.0442.1054.0694.1564l-.3388.6349-.7464,1.3988a2.0673,2.0673,0,0,0,.33,2.4088l1.5714,1.6347a1.999,1.999,0,0,0,2.4054.3469l1.9158-1.1057a11.6417,11.6417,0,0,0,1.785.7639L25.4,41.5333a2.0085,2.0085,0,0,0,1.9209,1.4886h2.2123a2.0086,2.0086,0,0,0,1.9209-1.4877L32.0705,39.3a11.4587,11.4587,0,0,0,1.785-.7639l1.9175,1.1065a2,2,0,0,0,2.4037-.3477l1.5714-1.6355a2.0643,2.0643,0,0,0,.329-2.408l-1.0844-2.0337a12.5594,12.5594,0,0,0,.7554-1.9029l2.1328-.6358a2.0469,2.0469,0,0,0,1.4373-1.96v-2.3a2.0515,2.0515,0,0,0-.0858-.5706A2.0272,2.0272,0,0,0,41.8809,24.4589Zm-.3127,4.26a.288.288,0,0,1-.1872.2837l-2.3045.6862a1.4265,1.4265,0,0,0-.9613.9792,10.84,10.84,0,0,1-.746,1.8825,1.4654,1.4654,0,0,0,.0077,1.356l1.1561,2.1687a.3249.3249,0,0,1-.0461.3717l-1.5714,1.6347a.2232.2232,0,0,1-.2692.0444l-2.0781-1.1988a1.4227,1.4227,0,0,0-1.3928-.0129,9.7454,9.7454,0,0,1-1.7945.77,1.4275,1.4275,0,0,0-.9527.9895L29.7676,41.07a.2576.2576,0,0,1-.2341.2017H27.3212a.2575.2575,0,0,1-.2341-.2026l-.66-2.3951a1.4279,1.4279,0,0,0-.9519-.9895,9.8022,9.8022,0,0,1-1.8012-.7742,1.4317,1.4317,0,0,0-.6828-.1751,1.3963,1.3963,0,0,0-.6981.1871L20.21,38.1248a.2206.2206,0,0,1-.2708-.0436l-1.5714-1.6338a.328.328,0,0,1-.047-.3726l1.1569-2.1678a1.4412,1.4412,0,0,0,.1662-.715,1.4616,1.4616,0,0,0-.1576-.6394c-.0641-.1258-.1154-.2583-.1745-.3869a10.8093,10.8093,0,0,1-.5715-1.4972,1.4306,1.4306,0,0,0-.9621-.98l-2.3037-.6862a.2876.2876,0,0,1-.188-.2837v-2.3a.2872.2872,0,0,1,.188-.2828l2.3037-.687a1.4346,1.4346,0,0,0,.9621-.9793,10.7916,10.7916,0,0,1,.7451-1.8816,1.4625,1.4625,0,0,0-.0068-1.3561l-1.1578-2.1695a.328.328,0,0,1,.047-.3726l1.5705-1.6338a.215.215,0,0,1,.27-.0444l2.09,1.2066a1.425,1.425,0,0,0,1.38.0059,9.9126,9.9126,0,0,1,1.7953-.7707,1.4258,1.4258,0,0,0,.9528-.9895l.66-2.3969a.2576.2576,0,0,1,.2341-.2016h2.2123a.2575.2575,0,0,1,.2341.2025l.66,2.3951a1.432,1.432,0,0,0,.9528.99,9.7781,9.7781,0,0,1,1.8.7742,1.4269,1.4269,0,0,0,1.3808-.0111l2.0833-1.2031a.2167.2167,0,0,1,.2709.0418l1.5714,1.6355a.3265.3265,0,0,1,.0461.3726l-1.1552,2.167a1.4407,1.4407,0,0,0-.1321.3689,1.4639,1.4639,0,0,0,.1227.9863,10.83,10.83,0,0,1,.7459,1.885,1.4335,1.4335,0,0,0,.9613.9793l2.3046.687a.2746.2746,0,0,1,.1739.2348c.0028.017.0141.03.0141.048Z"/><path class="cls-4" d="M49.004,16.125,28.8781,4.0194a.8773.8773,0,0,0-.9015-.0008L7.8525,16.0866a.875.875,0,0,0-.4247.75V39.69a.83.83,0,0,0,.0112.0846c.0026.0275.0055.0536.0108.0809a.8665.8665,0,0,0,.1.278l.0049.0136a.8575.8575,0,0,0,.1059.1318c.0084.009.0144.02.0231.0289a.8634.8634,0,0,0,.21.1566C28.045,52.201,28.1042,52.2017,28.4269,52.2017c.3307,0,.3811,0,20.566-11.7937a.88.88,0,0,0,.0747-.0579.8984.8984,0,0,0,.0951-.0737.8756.8756,0,0,0,.08-.0994.8153.8153,0,0,0,.057-.0707l.003-.0081a.8715.8715,0,0,0,.1022-.2845c.0049-.0263.0078-.0515.01-.0778.0027-.028.011-.0549.011-.0833l.0012-15.7338,0-7.0444A.874.874,0,0,0,49.004,16.125Zm-1.3267,8.3388-.0011,13.6355-2.5941-1.5716L42.21,34.788a.8753.8753,0,1,0-.9075,1.497l2.8826,1.7462,2.6541,1.6077L28.4261,50.3337c-.5568-.3121-1.7037-.97-3.2005-1.8331-3.8677-2.2306-10.15-5.88-15.2087-8.8252L15.6,36.2842a.8752.8752,0,0,0-.9092-1.4954L9.1778,38.1374V17.4108l5.0723,2.78a.875.875,0,0,0,.8408-1.5347l-4.2428-2.3253L28.4261,5.7891,46.0664,16.4,41.63,18.6628a.912.912,0,0,0-.382,1.1767.8741.8741,0,0,0,1.1767.3819l4.3718-2.23.8816-.45Z"/></g></svg>
